<svg width="512" height="160" viewBox="0 0 512 160" fill="none" xmlns="http://www.w3.org/2000/svg">
  <rect width="512" height="160" rx="18" fill="#FFFAF0"/>
  <circle cx="70" cy="78" r="38" fill="#2F8068"/>
  <circle cx="46" cy="48" r="19" fill="#2F8068"/>
  <circle cx="94" cy="48" r="19" fill="#2F8068"/>
  <path d="M46 82c13 20 35 20 48 0" stroke="#FFFAF0" stroke-width="9" stroke-linecap="round"/>
  <path d="M135 46h44c0 11 9 20 20 20v28c-11 0-20 9-20 20h-44c0-11-9-20-20-20V66c11 0 20-9 20-20Z" fill="#DFB561"/>
  <path d="M146 74h34M146 88h25" stroke="#76550D" stroke-width="7" stroke-linecap="round"/>
  <text x="220" y="70" fill="#17211D" font-family="Arial, Helvetica, sans-serif" font-size="31" font-weight="700">Secret Mouse</text>
  <text x="220" y="111" fill="#2F8068" font-family="Arial, Helvetica, sans-serif" font-size="31" font-weight="700">Savers</text>
</svg>
